<svg width="50" height="49" fill="none" xmlns="http://www.w3.org/2000/svg"><path d="M6 14a8 8 0 0 1 8-8h20a8 8 0 0 1 8 8v20a8 8 0 0 1-8 8H14a8 8 0 0 1-8-8V14Z" fill="#000"/><path fill-rule="evenodd" clip-rule="evenodd" d="M35 17a6 6 0 0 1-6-6h-5v18.5a3.5 3.5 0 1 1-3.5-3.5H22v-5h-1.5a8.5 8.5 0 1 0 8.5 8.5v-9.279A10.948 10.948 0 0 0 35 22h.5v-5H35Z" fill="#FA1E5C"/><path fill-rule="evenodd" clip-rule="evenodd" d="M34 16a6 6 0 0 1-6-6h-5v18.5a3.5 3.5 0 1 1-3.5-3.5H21v-5h-1.5a8.5 8.5 0 1 0 8.5 8.5v-9.279A10.948 10.948 0 0 0 34 21h.5v-5H34Z" fill="#5FFDFF"/><path fill-rule="evenodd" clip-rule="evenodd" d="M34.5 16.98a5.992 5.992 0 0 1-4.213-2.267A5.996 5.996 0 0 1 28.083 11H24v18.5a3.5 3.5 0 0 1-6.424 1.924A3.5 3.5 0 0 1 19.5 25H21v-4h-.5a8.5 8.5 0 0 0-6.49 13.99A8.5 8.5 0 0 0 28 28.5v-9.279A10.948 10.948 0 0 0 34 21h.5v-4.02Z" fill="#fff"/></svg>