<svg width="48" height="48" fill="none" xmlns="http://www.w3.org/2000/svg"><path fill-rule="evenodd" clip-rule="evenodd" d="M32.8 18.003 32.5 18C25.732 18 20 22.798 20 29c0 1.007.151 1.976.433 2.894A17.64 17.64 0 0 1 18.5 32c-1.809 0-3.54-.274-5.137-.775-.394-.123-1.828.696-3.039 1.389-.927.53-1.724.986-1.824.886-.094-.094.169-.718.476-1.448.446-1.06.986-2.346.664-2.552C6.21 27.305 4 23.866 4 20c0-6.627 6.492-12 14.5-12 7.186 0 13.151 4.326 14.3 10.003ZM16 16a2 2 0 1 1-4 0 2 2 0 0 1 4 0Zm7 2a2 2 0 1 0 0-4 2 2 0 0 0 0 4Z" fill="#6BB657"/><path fill-rule="evenodd" clip-rule="evenodd" d="M44 29c0 3.362-1.908 6.336-4.833 8.149-.13.08.169.858.446 1.583.237.618.459 1.196.387 1.268-.075.075-.802-.327-1.571-.752-.829-.458-1.706-.942-1.871-.888-1.262.413-2.63.64-4.058.64C26.149 39 21 34.523 21 29s5.149-10 11.5-10S44 23.477 44 29Zm-6-3.5a1.5 1.5 0 1 1-3 0 1.5 1.5 0 0 1 3 0ZM28.5 27a1.5 1.5 0 1 0 0-3 1.5 1.5 0 0 0 0 3Z" fill="#6BB657"/></svg>