<svg width="48" height="48" fill="none" xmlns="http://www.w3.org/2000/svg"><path d="M20.5 40C12.1 40 4 36 4 29c0-8 12.697-18.263 17.5-16.874 4 1.156 1.5 5.5 2 6s6.5-2.5 9-1c2.745 1.647.5 5 1 5.5.395.395 5 1 5 5.5 0 6-7.5 11.874-18 11.874Z" fill="#E93045"/><path d="M31.794 28.263c.44 4.317-4.48 8.355-10.988 9.018-6.509.664-12.142-2.298-12.582-6.616-.44-4.317 4.48-8.355 10.988-9.018 6.509-.664 12.142 2.298 12.582 6.616Z" fill="#fff"/><path d="M25.24 28.773c.707 2.87-1.426 5.865-4.764 6.688-3.338.823-6.618-.837-7.326-3.707-.707-2.87 1.425-5.865 4.764-6.688 3.338-.823 6.618.837 7.325 3.707Z" fill="#000"/><path d="M18.899 30.12c.536.994.034 2.305-1.12 2.929-1.156.624-2.527.324-3.064-.67-.536-.993-.035-2.304 1.12-2.927 1.156-.624 2.527-.325 3.064.668Z" fill="#fff"/><ellipse cx="20.7" cy="29.273" rx=".932" ry=".801" transform="rotate(-28.372 20.7 29.273)" fill="#fff"/><path d="M30.74 13.052a5.5 5.5 0 0 1 6.17 6.448M41.915 19.845c.056-.44.085-.89.085-1.345C42 12.701 37.299 8 31.5 8c-.41 0-.814.023-1.21.07" stroke="#F93" stroke-width="2.6" stroke-linecap="round"/></svg>